<svg xmlns="http://www.w3.org/2000/svg" xmlns:xlink="http://www.w3.org/1999/xlink" width="80" height="80" viewBox="0 0 80 80">
  <defs>
    <clipPath id="clip-codeigniter_Hover">
      <rect width="80" height="80"/>
    </clipPath>
  </defs>
  <g id="codeigniter_Hover" clip-path="url(#clip-codeigniter_Hover)">
    <rect width="80" height="80" fill="#fff"/>
    <rect id="Rectangle_1" data-name="Rectangle 1" width="80" height="80" fill="#e9f0f9"/>
    <g id="codeigniter" transform="translate(1 1)">
      <path id="Path_25" data-name="Path 25" d="M19.407,51.072C13.831,49.759,8.8,45.951,6.944,40.38,3.91,31.269,9.712,22.427,16.1,16.406q4.412-4.159,6.037-5.6c2.77-2.458,6-6.817,4.431-10.739A.05.05,0,0,1,26.6,0a.046.046,0,0,1,.045.007c3.7,2.871,6.522,7.857,5.171,12.606-.6,2.11-1.449,4.286-1.218,6.2A4.223,4.223,0,0,0,34,22.718c2.018.281,4.312-1.111,4-3.433a.072.072,0,0,1,.062-.082.076.076,0,0,1,.042.006c5.333,2.679,9.95,7.478,10.683,13.686,1.046,8.879-6.333,15.646-14.182,17.907q-2.036.585-.083-.232a10.869,10.869,0,0,0,2.311-1.555,9.059,9.059,0,0,0,3.483-6.162c.816-7.017-6.071-11.178-11.145-14.135-2.343-1.365-5.4-3.529-5.2-6.611.006-.1-.027-.112-.095-.045a7,7,0,0,0-1.8,2.539c-1.3,3.41.315,5.589,2.384,8.049a6.359,6.359,0,0,1,1.194,1.844c2.077,6.146-8.339,6.287-6.416-.223a.122.122,0,0,0-.08-.15.119.119,0,0,0-.108.02c-2.637,1.922-4.85,4.91-5.082,8.135-.269,3.743,2.254,7.074,5.46,8.731a.034.034,0,0,1,.021.044.033.033,0,0,1-.043.021" transform="translate(12 7)" fill="#e52c18"/>
      <g id="text" transform="translate(12 62.089)">
        <path id="Path_26" data-name="Path 26" d="M42.486,57.27l.226-1.548a.24.24,0,0,1,.182-.21l1.046-.307q.182-.054.156.135l-.265,1.909a.146.146,0,0,0,.126.165l.019,0h1.55a.106.106,0,0,1,.1.108.11.11,0,0,1-.008.04L45.3,58.3a.238.238,0,0,1-.236.156H43.838a.182.182,0,0,0-.2.177L43.243,61.3a.342.342,0,0,0,.278.387,1.393,1.393,0,0,0,1.077-.218.135.135,0,0,1,.205.031l.455.58a.122.122,0,0,1-.033.2c-.973.642-3.082,1.009-3.342-.661a9.289,9.289,0,0,1,.5-3c.031-.111-.01-.166-.125-.166h-.621a.131.131,0,0,1-.13-.131l0-.02.122-.72a.2.2,0,0,1,.2-.169h.492a.17.17,0,0,0,.166-.146" transform="translate(-0.069 -55.193)" fill="#e52c18"/>
        <path id="Path_27" data-name="Path 27" d="M1.362,60.146c-.018,2.174,2.408,1.826,3.316.471a.149.149,0,0,1,.2-.042l.72.481a.13.13,0,0,1,.039.18l0,.008a3.48,3.48,0,0,1-3.956,1.438C-.365,62.167-.157,59.374.314,57.857q.912-2.943,3.779-2.569a2.145,2.145,0,0,1,2.052,2.543.106.106,0,0,1-.117.107l-.741-.008a.122.122,0,0,1-.121-.123V57.79c.133-.931-.388-1.423-1.285-1.467-2.138-.109-2.507,2.2-2.52,3.823" transform="translate(0 -55.193)" fill="#e52c18"/>
        <path id="Path_28" data-name="Path 28" d="M15.814,57.22l.268-1.719a.2.2,0,0,1,.195-.166H17.3c.108,0,.153.053.138.161l-1.085,7.493a.155.155,0,0,1-.171.148h-.656A.184.184,0,0,1,15.351,63l-.08-.315A.109.109,0,0,0,15.1,62.6c-4.884,1.9-4.445-6.825.544-5.277.1.029.151,0,.166-.1m-.434.978c-2.179-.684-2.421,1.469-2.273,2.918.1.97,1.368.666,1.924.369a.229.229,0,0,0,.125-.179l.427-2.785a.264.264,0,0,0-.2-.323" transform="translate(-0.02 -55.193)" fill="#e52c18"/>
        <path id="Path_29" data-name="Path 29" d="M40.915,55.389a.076.076,0,0,1,.068.082h0l-.071.864c-.027.341-.133.612-.236.606l-1.126-.094c-.1-.009-.164-.293-.136-.635l.071-.866a.075.075,0,0,1,.082-.067h0Z" transform="translate(-0.063 -55.193)" fill="#e52c18"/>
        <path id="Path_30" data-name="Path 30" d="M25,62.1h.51a.11.11,0,0,1,.108.111l0,.014-.114.822a.109.109,0,0,1-.109.093H22.785a.109.109,0,0,1-.11-.108v-.014l.1-.822a.11.11,0,0,1,.11-.1h.548a.11.11,0,0,0,.11-.091l.785-5.014a.108.108,0,0,0-.092-.124.07.07,0,0,0-.025,0l-.492.036a.109.109,0,0,1-.117-.1v-.019l.084-.83a.109.109,0,0,1,.109-.1h2.645a.109.109,0,0,1,.11.108v.017l-.125.822a.108.108,0,0,1-.106.093h-.534a.11.11,0,0,0-.109.091l-.783,4.984a.109.109,0,0,0,.09.125l.017,0" transform="translate(-0.038 -55.193)" fill="#e52c18"/>
        <path id="Path_31" data-name="Path 31" d="M10.153,57.205c1.477.444,1.321,2.4.9,3.649a2.608,2.608,0,0,1-3.324,1.838c-2.887-.525-1.776-6.757,2.424-5.487m-.715.975C7.282,57.626,7.045,61.5,8.182,61.7c1.982.364,2.309-3.254,1.256-3.524" transform="translate(0 -55.193)" fill="#e52c18"/>
        <path id="Path_32" data-name="Path 32" d="M22.028,61.379a.139.139,0,0,1,.034.218,2.8,2.8,0,0,1-2.778,1.176c-2-.224-2.161-2.008-1.719-3.568.944-3.319,5.87-2.911,4.825,1.209a.149.149,0,0,1-.159.122H18.918a.155.155,0,0,0-.167.13c-.354,1.451,1.511,1.137,2.18.58q.44-.366,1.1.133m-2.879-1.852,2.065-.065a.057.057,0,0,0,.055-.057l0-.089a1.1,1.1,0,0,0-1.094-1.11h-.063a1.1,1.1,0,0,0-1.022,1.177h0l0,.088a.058.058,0,0,0,.06.055" transform="translate(-0.03 -55.193)" fill="#e52c18"/>
        <path id="Path_33" data-name="Path 33" d="M34.424,57.67c1.308-.994,3.189-.832,3.092,1.178q-.041.847-.538,4.135a.162.162,0,0,1-.177.154h-1c-.121,0-.172-.061-.153-.182q.3-1.893.494-3.782c.156-1.545-1.36-.915-1.92-.379a.352.352,0,0,0-.109.21l-.543,3.966a.172.172,0,0,1-.19.167H32.4c-.111,0-.16-.056-.146-.167l.718-5.3a.241.241,0,0,1,.14-.195.881.881,0,0,1,1.137.177.115.115,0,0,0,.174.013" transform="translate(-0.055 -55.193)" fill="#e52c18"/>
        <path id="Path_34" data-name="Path 34" d="M50.254,61.317c.028.008.063.018.1.028a.136.136,0,0,1,.073.219,3.091,3.091,0,0,1-3.136,1.178c-1.894-.39-1.844-2.143-1.436-3.61.9-3.238,5.826-2.832,4.8,1.287a.141.141,0,0,1-.151.117H47.133a.183.183,0,0,0-.182.177c-.039,1.1.994,1.2,1.774.874.455-.19.632-.832,1.347-.335a.881.881,0,0,0,.182.065m-.811-1.951c.31-1.652-1.758-1.43-2.159-.01-.026.093.01.14.107.14h1.893a.146.146,0,0,0,.159-.13" transform="translate(-0.085 -55.193)" fill="#e52c18"/>
        <path id="Path_35" data-name="Path 35" d="M53.48,57.481a2.19,2.19,0,0,1,1.469-.455.136.136,0,0,1,.136.137v.011L55,58.113a.133.133,0,0,1-.135.135c-.552.044-1.722.063-1.816.793q-.249,1.967-.512,3.928a.175.175,0,0,1-.192.169h-1c-.134,0-.192-.067-.175-.2l.744-5.382a.2.2,0,0,1,.219-.169l1.1.143a.386.386,0,0,0,.244-.049" transform="translate(-0.085 -55.193)" fill="#e52c18"/>
        <path id="Path_36" data-name="Path 36" d="M27.7,61.111a.255.255,0,0,0,.235.3q1.177.192,2.338.455c1.495.338,1.3,2.234.244,2.8-.915.489-3.794.832-4.5-.45a1.892,1.892,0,0,1,.635-2.351.176.176,0,0,0,.057-.226.765.765,0,0,1,.364-1.069.143.143,0,0,0,.055-.195l-.008-.013a1.287,1.287,0,0,1-.265-.606c-.149-2.408,2.231-3.194,4.059-2.229a.126.126,0,0,0,.078.016l1.452-.159a.139.139,0,0,1,.154.118.147.147,0,0,1-.006.059l-.255.8a.188.188,0,0,1-.237.119l-.005,0-.39-.146c-.085-.033-.125,0-.12.089.149,2.538-1.708,2.7-3.745,2.569a.116.116,0,0,0-.138.122m2.5-2.566a1.12,1.12,0,1,0-.559,1.325,1.024,1.024,0,0,0,.559-1.325m-.718,4.166a12.131,12.131,0,0,0-1.813-.343.231.231,0,0,0-.223.093,1.262,1.262,0,0,0-.227,1.171.269.269,0,0,0,.156.182,2.263,2.263,0,0,0,2.349-.055c.53-.372.369-.887-.242-1.048" transform="translate(-0.045 -55.193)" fill="#e52c18"/>
        <path id="Path_37" data-name="Path 37" d="M40.242,62.074l.343.034a.111.111,0,0,1,.112.14l-.083.7a.155.155,0,0,1-.143.149c-2.65.416-1.576-2.924-1.314-4.32q.06-.318-.262-.318h-.422c-.1,0-.142-.048-.13-.145l.089-.718a.2.2,0,0,1,.2-.177h1.932c.085,0,.121.042.109.127l-.606,4.31a.171.171,0,0,0,.172.221" transform="translate(-0.062 -55.193)" fill="#e52c18"/>
      </g>
    </g>
  </g>
</svg>
