<svg xmlns="http://www.w3.org/2000/svg" xmlns:xlink="http://www.w3.org/1999/xlink" width="80" height="80" viewBox="0 0 80 80">
  <defs>
    <clipPath id="clip-Laravel_Hover">
      <rect width="80" height="80"/>
    </clipPath>
  </defs>
  <g id="Laravel_Hover" clip-path="url(#clip-Laravel_Hover)">
    <rect width="80" height="80" fill="#fff"/>
    <rect id="Rectangle_1" data-name="Rectangle 1" width="80" height="80" fill="#e9f0f9"/>
    <g id="Laravel_hover-2" data-name="Laravel_hover" transform="translate(10 9)">
      <path id="Path_1" data-name="Path 1" d="M12.742,0c1.624.926,3.251,1.847,4.871,2.78C19.9,4.1,22.188,5.431,24.484,6.743a1.235,1.235,0,0,1,.678,1.19q-.01,12.164,0,24.329v.4c.119-.061.2-.1.275-.142q4.611-2.667,9.222-5.33a.374.374,0,0,0,.212-.377q-.008-6.2-.007-12.393a1.077,1.077,0,0,1,.581-1.011q5.691-3.286,11.377-6.581a1.116,1.116,0,0,1,1.227,0q5.663,3.284,11.336,6.553A1.129,1.129,0,0,1,60,14.442q-.009,6.512,0,13.024a1.119,1.119,0,0,1-.622,1.063Q54,31.627,48.627,34.736a.429.429,0,0,0-.246.435c.007,4.1,0,8.193.009,12.291a1.162,1.162,0,0,1-.634,1.109q-11.427,6.6-22.844,13.212a1.278,1.278,0,0,1-1.428,0Q12.049,55.149.6,48.544A1.358,1.358,0,0,1,0,47.8V7.537a1.531,1.531,0,0,1,.818-.867C3.514,5.12,6.2,3.555,8.9,2c1.175-.676,2.36-1.336,3.541-2ZM23.25,59.422v-.366q0-5.247.005-10.495a.521.521,0,0,0-.3-.531c-3.542-2-7.077-4.023-10.621-6.023a1.234,1.234,0,0,1-.7-1.2q.017-12.771.009-25.543a.41.41,0,0,0-.21-.432q-4.639-2.667-9.268-5.35c-.067-.039-.141-.069-.25-.122v.3q0,18.576-.005,37.151a.436.436,0,0,0,.256.432Q12.445,53.18,22.721,59.126c.157.092.317.178.528.3M46.488,35.985c-.131.069-.2.106-.276.147Q35.8,42.1,25.391,48.063a.415.415,0,0,0-.246.412q.009,5.324.005,10.648c0,.087.011.174.019.291.119-.065.2-.106.279-.153q10.4-6.011,20.8-12.019a.432.432,0,0,0,.247-.436q-.01-5.248,0-10.5v-.325M23.252,9.363c-.1.045-.145.063-.188.087q-4.675,2.7-9.352,5.4a.353.353,0,0,0-.178.373q0,11.923,0,23.844v.313c.129-.069.216-.114.3-.163q4.566-2.64,9.135-5.274a.491.491,0,0,0,.286-.493q-.01-11.872-.005-23.744V9.363M45.5,34.327c-.086-.056-.134-.089-.184-.118q-4.663-2.7-9.328-5.4a.3.3,0,0,0-.341,0c-.905.531-1.815,1.053-2.724,1.578q-9.068,5.243-18.137,10.488c-.082.046-.157.1-.254.17.088.055.143.093.2.125q4.64,2.638,9.279,5.28a.354.354,0,0,0,.409-.024q10.407-5.971,20.816-11.938c.079-.045.154-.1.264-.165M2.9,7.692c.093.058.141.091.191.12q4.653,2.692,9.3,5.387a.354.354,0,0,0,.411-.019q4.617-2.676,9.24-5.346c.068-.039.132-.087.223-.148-.1-.064-.166-.111-.236-.152q-4.621-2.672-9.24-5.347a.373.373,0,0,0-.434.017Q7.749,4.874,3.137,7.537c-.07.04-.136.087-.24.155m54.228,6.6c-.113-.07-.2-.125-.282-.175q-4.6-2.66-9.2-5.322a.373.373,0,0,0-.432,0q-4.268,2.478-8.542,4.945l-.934.543c.093.061.154.1.218.142q4.631,2.679,9.262,5.361a.372.372,0,0,0,.432,0q4.539-2.636,9.085-5.262c.122-.07.241-.144.388-.233m-20.348,1.66c-.008.128-.015.2-.015.275q0,5.3-.005,10.6a.376.376,0,0,0,.232.368q4.612,2.661,9.221,5.329c.076.044.157.079.279.14V32.34q0-5.248,0-10.495a.413.413,0,0,0-.234-.418q-4.277-2.461-8.545-4.937l-.936-.537M48.386,32.665c.121-.065.2-.1.278-.149q4.6-2.658,9.2-5.313a.4.4,0,0,0,.234-.393q-.01-5.273-.006-10.545c0-.087-.009-.175-.015-.293-.094.048-.153.075-.209.108Q53.235,18.757,48.6,21.43a.392.392,0,0,0-.219.4q.009,5.259,0,10.519Z" fill="#e71c1e"/>
    </g>
  </g>
</svg>
