<svg xmlns="http://www.w3.org/2000/svg" xmlns:xlink="http://www.w3.org/1999/xlink" width="80" height="80" viewBox="0 0 80 80">
  <defs>
    <clipPath id="clip-path">
      <rect id="Rectangle_5" data-name="Rectangle 5" width="63" height="63" fill="#c2c7cc"/>
    </clipPath>
    <clipPath id="clip-nextjs">
      <rect width="80" height="80"/>
    </clipPath>
  </defs>
  <g id="nextjs" clip-path="url(#clip-nextjs)">
    <rect width="80" height="80" fill="#fff"/>
    <rect id="Rectangle_2" data-name="Rectangle 2" width="80" height="80" fill="#426ab3"/>
    <g id="Group_3" data-name="Group 3" transform="translate(9 9)">
      <g id="Group_1" data-name="Group 1" transform="translate(0 0)" clip-path="url(#clip-path)">
        <path id="Path_42" data-name="Path 42" d="M29.437.017C29.3.029,28.87.072,28.482.1A31.574,31.574,0,0,0,5.844,13.156,31.172,31.172,0,0,0,.283,26.919,24.131,24.131,0,0,0,0,31.506a24.125,24.125,0,0,0,.283,4.587A31.628,31.628,0,0,0,21.831,61.542a33.349,33.349,0,0,0,6.65,1.379,58.266,58.266,0,0,0,6.036,0A31.8,31.8,0,0,0,45.867,59.6c.542-.277.646-.352.573-.413-.05-.037-2.359-3.134-5.13-6.878l-5.038-6.8-6.313-9.34c-3.474-5.136-6.331-9.335-6.355-9.335s-.05,4.144-.062,9.212c-.019,8.873-.025,9.23-.136,9.439a1.12,1.12,0,0,1-.542.561c-.2.1-.369.116-1.3.116H20.5l-.283-.178a1.154,1.154,0,0,1-.413-.45l-.129-.277.012-12.346.019-12.351.191-.24a1.676,1.676,0,0,1,.456-.375c.252-.124.352-.136,1.417-.136,1.256,0,1.466.05,1.791.406.092.1,3.51,5.246,7.6,11.448s9.681,14.667,12.428,18.823l4.989,7.556.252-.167A32.356,32.356,0,0,0,55.3,52.195a31.363,31.363,0,0,0,7.415-16.1A24.125,24.125,0,0,0,63,31.506a24.131,24.131,0,0,0-.283-4.588A31.628,31.628,0,0,0,41.169,1.47,33.1,33.1,0,0,0,34.61.1c-.591-.062-4.662-.129-5.173-.079m12.9,19.051a1.238,1.238,0,0,1,.622.727c.05.16.062,3.584.05,11.3l-.019,11.071-1.952-2.992L39.074,36.18V28.132c0-5.2.025-8.128.062-8.27a1.261,1.261,0,0,1,.61-.776c.253-.13.346-.142,1.312-.142.912,0,1.071.012,1.275.123" transform="translate(0 0)" fill="#c2c7cc"/>
      </g>
    </g>
  </g>
</svg>
