<svg xmlns="http://www.w3.org/2000/svg" xmlns:xlink="http://www.w3.org/1999/xlink" width="80" height="80" viewBox="0 0 80 80">
  <defs>
    <linearGradient id="linear-gradient" x1="0.329" x2="0.455" y2="0.603" gradientUnits="objectBoundingBox">
      <stop offset="0" stop-color="#dadde0"/>
      <stop offset="1" stop-color="#b4bbc1"/>
    </linearGradient>
    <clipPath id="clip-php">
      <rect width="80" height="80"/>
    </clipPath>
  </defs>
  <g id="php" clip-path="url(#clip-php)">
    <rect width="80" height="80" fill="#fff"/>
    <rect id="Rectangle_2" data-name="Rectangle 2" width="80" height="80" fill="#426ab3"/>
    <g id="php-2" data-name="php" transform="translate(389 -193)">
      <ellipse id="Ellipse_1" data-name="Ellipse 1" cx="37" cy="19.5" rx="37" ry="19.5" transform="translate(-386 214)" fill="url(#linear-gradient)"/>
      <ellipse id="Ellipse_2" data-name="Ellipse 2" cx="35.5" cy="17.763" rx="35.5" ry="17.763" transform="translate(-384.5 215.737)" fill="#828b92"/>
      <g id="php-3" data-name="php" transform="translate(3 1)">
        <path id="Path_19" data-name="Path 19" d="M32.009,14.757c.168-.863.331-1.69.491-2.517q.421-2.177.844-4.353.247-1.273.5-2.547a.8.8,0,0,1,.848-.71q2.073,0,4.148,0a.792.792,0,0,1,.808.98c-.26,1.355-.519,2.709-.788,4.062-.029.143.026.14.128.14C39.991,9.81,41,9.8,42,9.817a10.8,10.8,0,0,1,3.463.53,4.107,4.107,0,0,1,2.09,1.5,4.078,4.078,0,0,1,.68,1.939.176.176,0,0,0,.032.1c.049-.245.1-.49.148-.735q.255-1.324.512-2.65a.81.81,0,0,1,.811-.689c2.851,0,5.7-.013,8.553.01a8.444,8.444,0,0,1,3.835.854,5.5,5.5,0,0,1,3.068,4.194,9.026,9.026,0,0,1-.16,3.507,9.364,9.364,0,0,1-4.473,6.151,8.1,8.1,0,0,1-2.9,1.01,17.4,17.4,0,0,1-2.93.211c-.906,0-1.815,0-2.722,0-.113,0-.159.027-.182.148q-.417,2.186-.851,4.366a.786.786,0,0,1-.814.682c-1.4.006-2.8.01-4.195,0a.811.811,0,0,1-.813-1.036q.414-2.1.818-4.191a.479.479,0,0,0,0-.08,1.561,1.561,0,0,1-.858.114q-1.911,0-3.822,0a.8.8,0,0,1-.838-.753,2.012,2.012,0,0,1,.084-.57c.439-2.266.886-4.531,1.322-6.8.124-.641.272-1.277.353-1.925a2.436,2.436,0,0,0-.007-.666.34.34,0,0,0-.243-.287,2.81,2.81,0,0,0-.784-.154c-.847-.056-1.695-.015-2.542-.027-.2,0-.407,0-.61,0-.091,0-.13.025-.147.118q-.354,1.836-.712,3.669-.424,2.182-.85,4.366c-.152.786-.3,1.573-.459,2.358a.793.793,0,0,1-.821.671H30.906a.812.812,0,0,1-.834-1.028q.339-1.718.671-3.435c0-.009,0-.019-.006-.05-.147.217-.281.426-.428.625a9.106,9.106,0,0,1-4.128,3.234,9.908,9.908,0,0,1-2.337.534,46.683,46.683,0,0,1-4.976.116c-.142,0-.2.031-.23.18q-.41,2.15-.832,4.3a.814.814,0,0,1-.856.723c-1.374,0-2.748,0-4.12,0a.838.838,0,0,1-.861-1.032c.221-1.039.413-2.084.616-3.128q.454-2.336.907-4.672.362-1.863.723-3.726.443-2.271.884-4.541c.22-1.131.436-2.262.658-3.391a.805.805,0,0,1,.82-.642h3.659c1.617,0,3.233-.013,4.848.009a8.851,8.851,0,0,1,3.6.731,5.524,5.524,0,0,1,3.287,4.061c.007.038.021.075.04.146M21.118,10.618v0q-2.214,0-4.431,0c-.112,0-.147.03-.168.143-.117.636-.248,1.269-.37,1.9q-.365,1.868-.725,3.735-.349,1.8-.7,3.6-.365,1.873-.728,3.748-.348,1.8-.7,3.589-.261,1.33-.521,2.659c-.015.081-.031.14.1.14,1.337-.006,2.677,0,4.014,0,.087,0,.122-.024.139-.109q.474-2.472.952-4.942c.02-.1.059-.138.172-.137,1.026,0,2.052,0,3.078,0a18.785,18.785,0,0,0,2.978-.18,7.6,7.6,0,0,0,2.233-.656,8.525,8.525,0,0,0,4.15-4.4,9.314,9.314,0,0,0,.663-2.66,7.112,7.112,0,0,0-.047-2.131,4.782,4.782,0,0,0-3.134-3.752,8.613,8.613,0,0,0-3.121-.544c-1.278-.015-2.557,0-3.837,0M54.031,24.944a22.874,22.874,0,0,0,2.92-.118,8.775,8.775,0,0,0,1.989-.439,8.355,8.355,0,0,0,4.734-4.448,8.728,8.728,0,0,0,.723-2.582,7.5,7.5,0,0,0-.015-2.483,4.778,4.778,0,0,0-3.1-3.7,8.445,8.445,0,0,0-3.151-.554c-2.765-.013-5.532-.005-8.3-.012-.121,0-.122.07-.136.144-.066.339-.129.678-.2,1.018q-.365,1.873-.73,3.748-.351,1.8-.7,3.6l-.729,3.749q-.35,1.8-.7,3.6-.345,1.773-.692,3.545c-.018.089.011.111.1.108.189,0,.377,0,.565,0,1.141,0,2.281,0,3.422,0,.109,0,.16-.016.182-.141.085-.491.187-.979.282-1.469.225-1.152.453-2.3.671-3.458.02-.1.056-.121.151-.121.784,0,1.566,0,2.711,0m-15.17-19.5a.305.305,0,0,0-.047-.01c-1.358,0-2.716,0-4.075,0-.1,0-.11.057-.123.124q-.194.995-.387,1.991-.481,2.492-.964,4.985-.542,2.79-1.089,5.578-.654,3.357-1.307,6.713c-.018.094,0,.125.1.125q1.993-.006,3.986,0c.084,0,.116-.019.133-.109q.354-1.862.719-3.721.369-1.9.737-3.793c.224-1.148.451-2.3.671-3.443.018-.094.047-.118.138-.118,1.175,0,2.35,0,3.526.009a4.144,4.144,0,0,1,1.215.171,1.17,1.17,0,0,1,.843.72,2.241,2.241,0,0,1,.1.8,11.329,11.329,0,0,1-.287,1.813c-.238,1.255-.486,2.509-.731,3.763s-.484,2.5-.732,3.748c-.023.119-.012.157.123.157,1.28-.006,2.559,0,3.838,0,.29,0,.294,0,.35-.287q.4-2.026.792-4.053.473-2.427.939-4.854a6.22,6.22,0,0,0,.081-2.082,2.943,2.943,0,0,0-1.778-2.38,8.383,8.383,0,0,0-3.113-.646c-.956-.052-1.913-.023-2.869-.027-.561,0-1.121,0-1.681,0-.085,0-.122,0-.094-.11.056-.234.09-.475.136-.712q.423-2.172.85-4.349" transform="translate(-390 212)" fill="#b4bac0"/>
        <path id="Path_20" data-name="Path 20" d="M21.118,10.619c1.279,0,2.558-.011,3.837,0a8.622,8.622,0,0,1,3.122.544,4.79,4.79,0,0,1,3.134,3.752,7.145,7.145,0,0,1,.045,2.131,9.311,9.311,0,0,1-.661,2.66,8.525,8.525,0,0,1-4.152,4.4,7.585,7.585,0,0,1-2.233.656,18.765,18.765,0,0,1-2.977.18c-1.026,0-2.053,0-3.079,0-.111,0-.151.034-.171.137q-.474,2.472-.953,4.942c-.016.085-.052.11-.137.109-1.339,0-2.677,0-4.016,0-.131,0-.115-.059-.1-.14q.261-1.329.52-2.659.349-1.794.7-3.588.363-1.875.727-3.749.351-1.8.7-3.6.363-1.867.724-3.735c.124-.634.254-1.267.37-1.9.021-.113.057-.143.168-.142q2.217,0,4.432,0v.005m1,3.082c-.662,0-1.213,0-1.763,0-.114,0-.172.014-.191.147-.042.287-.108.572-.163.857q-.349,1.8-.7,3.589-.334,1.714-.671,3.428c-.024.119,0,.146.123.146.778-.006,1.557,0,2.335,0a9.377,9.377,0,0,0,2.485-.279,3.759,3.759,0,0,0,2.249-1.558,5.585,5.585,0,0,0,.736-1.686,6.518,6.518,0,0,0,.254-2.666,1.91,1.91,0,0,0-1.151-1.558,5.118,5.118,0,0,0-1.68-.384c-.659-.057-1.318-.018-1.865-.031" transform="translate(-390 212)" fill="#515455"/>
        <path id="Path_21" data-name="Path 21" d="M54.031,24.944c-1.144,0-1.928,0-2.711,0-.1,0-.131.017-.15.12-.22,1.154-.447,2.306-.672,3.459-.1.489-.2.977-.282,1.468-.021.125-.072.142-.182.141-1.141,0-2.281,0-3.421,0-.189,0-.377,0-.565,0-.085,0-.115-.018-.1-.108q.348-1.771.692-3.545l.7-3.6q.365-1.875.728-3.749.351-1.8.7-3.6.365-1.874.731-3.748c.065-.339.128-.679.194-1.018.014-.074.015-.144.136-.143,2.767.006,5.533,0,8.3.012a8.459,8.459,0,0,1,3.15.553,4.778,4.778,0,0,1,3.1,3.7,7.5,7.5,0,0,1,.015,2.483,8.719,8.719,0,0,1-.723,2.582,8.352,8.352,0,0,1-4.734,4.448,8.775,8.775,0,0,1-1.989.439,22.88,22.88,0,0,1-2.92.118M53.5,21.863h.758a9.681,9.681,0,0,0,2.4-.25,3.714,3.714,0,0,0,2.481-1.8,7,7,0,0,0,.88-3.96A1.975,1.975,0,0,0,58.564,14a5.855,5.855,0,0,0-1.792-.29c-1.1-.017-2.191-.006-3.286-.011-.091,0-.117.035-.132.114q-.249,1.293-.5,2.586-.519,2.664-1.037,5.33c-.02.1,0,.138.109.136.525,0,1.051,0,1.576,0" transform="translate(-390 212)" fill="#515455"/>
        <path id="Path_22" data-name="Path 22" d="M38.861,5.444q-.427,2.18-.85,4.349c-.046.237-.08.478-.136.712-.028.109.009.111.094.11.56,0,1.12,0,1.681,0,.956,0,1.913-.025,2.869.027a8.383,8.383,0,0,1,3.113.646,2.943,2.943,0,0,1,1.778,2.38,6.22,6.22,0,0,1-.081,2.082q-.462,2.428-.939,4.854Q46,22.63,45.6,24.657c-.056.287-.06.287-.35.287-1.279,0-2.558,0-3.838,0-.135,0-.146-.038-.123-.157.248-1.248.488-2.5.732-3.748s.493-2.508.731-3.763a11.329,11.329,0,0,0,.287-1.813,2.241,2.241,0,0,0-.1-.8,1.17,1.17,0,0,0-.843-.72,4.144,4.144,0,0,0-1.215-.171c-1.176-.009-2.351-.005-3.526-.009-.091,0-.12.024-.138.118-.22,1.148-.447,2.3-.671,3.443q-.369,1.9-.737,3.793-.362,1.86-.719,3.721c-.017.09-.049.109-.133.109q-1.992,0-3.986,0c-.106,0-.121-.031-.1-.125q.656-3.355,1.307-6.713.543-2.788,1.089-5.578.485-2.493.964-4.985.192-1,.387-1.991c.013-.067.021-.124.123-.124,1.359.005,2.717,0,4.075,0a.305.305,0,0,1,.047.01" transform="translate(-390 212)" fill="#515455"/>
        <path id="Path_23" data-name="Path 23" d="M53.5,21.868c-.526,0-1.051,0-1.576,0-.115,0-.13-.034-.11-.136q.522-2.665,1.037-5.331.252-1.293.5-2.585c.015-.08.04-.115.132-.114,1.1,0,2.19-.007,3.285.011a5.826,5.826,0,0,1,1.793.29,1.975,1.975,0,0,1,1.454,1.854,6.993,6.993,0,0,1-.881,3.959,3.71,3.71,0,0,1-2.48,1.8,9.686,9.686,0,0,1-2.4.25H53.5m2.062-7.359c-.506,0-.932.007-1.358,0-.137,0-.174.05-.2.167q-.6,3.122-1.212,6.241c-.021.107-.006.149.117.148.52-.006,1.041,0,1.561,0a7.953,7.953,0,0,0,1.957-.216A2.877,2.877,0,0,0,58.2,19.77a5.9,5.9,0,0,0,1.01-3.955,1.084,1.084,0,0,0-.692-.962,4.51,4.51,0,0,0-1.4-.312c-.544-.052-1.089-.025-1.554-.032" transform="translate(-390 212)" fill="#b4bac0"/>
        <path id="Path_24" data-name="Path 24" d="M22.123,13.706c.546.013,1.206-.026,1.864.031a5.124,5.124,0,0,1,1.681.384,1.911,1.911,0,0,1,1.151,1.558,6.5,6.5,0,0,1-.255,2.666,5.607,5.607,0,0,1-.735,1.686,3.764,3.764,0,0,1-2.25,1.558,9.369,9.369,0,0,1-2.484.279c-.779,0-1.557,0-2.335,0-.121,0-.147-.027-.124-.146q.341-1.713.671-3.428.35-1.794.7-3.589c.056-.285.121-.57.163-.857.019-.133.077-.149.192-.148.55.006,1.1,0,1.763,0m.251.8c-.505,0-.931,0-1.357,0-.114,0-.161.025-.184.147-.167.894-.345,1.786-.518,2.678q-.348,1.791-.7,3.58c-.023.117-.006.151.12.149.575-.007,1.15,0,1.725-.005a7.686,7.686,0,0,0,1.794-.212,2.948,2.948,0,0,0,2.023-1.456,6.342,6.342,0,0,0,.763-3.475,1.193,1.193,0,0,0-.876-1.132,5.316,5.316,0,0,0-1.235-.241c-.544-.048-1.089-.024-1.556-.031" transform="translate(-390 212)" fill="#b4bac0"/>
      </g>
    </g>
  </g>
</svg>
