<svg xmlns="http://www.w3.org/2000/svg" xmlns:xlink="http://www.w3.org/1999/xlink" width="80" height="80" viewBox="0 0 80 80">
  <defs>
    <clipPath id="clip-React">
      <rect width="80" height="80"/>
    </clipPath>
  </defs>
  <g id="React" clip-path="url(#clip-React)">
    <rect width="80" height="80" fill="#fff"/>
    <rect id="Rectangle_2" data-name="Rectangle 2" width="80" height="80" fill="#426ab3"/>
    <g id="React-2" data-name="React" transform="translate(1 1)">
      <path id="Path_40" data-name="Path 40" d="M18.91,0h2.5a.234.234,0,0,0,.135.054A11.88,11.88,0,0,1,23.2.445a19.1,19.1,0,0,1,4.612,2.241,37.607,37.607,0,0,1,5.482,4.388c.223.211.19.22.416,0,.661-.639,1.348-1.25,2.052-1.842a29.291,29.291,0,0,1,5.433-3.71A15,15,0,0,1,44.953.144a2.08,2.08,0,0,0,.6-.144h2.5a.337.337,0,0,0,.193.066,6.915,6.915,0,0,1,1.526.49,6.733,6.733,0,0,1,3.276,3.41,12.444,12.444,0,0,1,1.07,4.627,25.21,25.21,0,0,1-.182,4.766,41.81,41.81,0,0,1-.9,4.718c-.079.313-.078.313.236.407.019,0,.037.012.056.018a39.413,39.413,0,0,1,4.8,1.689,23.069,23.069,0,0,1,5.077,2.883,11.373,11.373,0,0,1,2.708,2.875,6.667,6.667,0,0,1,1.081,3.3,6.4,6.4,0,0,1-.9,3.526,10.748,10.748,0,0,1-2.8,3.107,23.838,23.838,0,0,1-5.69,3.175,42.022,42.022,0,0,1-4.386,1.507c-.248.071-.256.087-.2.328.083.354.173.707.255,1.061a33.919,33.919,0,0,1,.844,5.678,20.26,20.26,0,0,1-.168,4.382,10.864,10.864,0,0,1-1.165,3.573,6.418,6.418,0,0,1-4.475,3.358.266.266,0,0,0-.135.056H45.435a.287.287,0,0,0-.165-.058,11.187,11.187,0,0,1-1.727-.441,19.73,19.73,0,0,1-4.455-2.222,37.871,37.871,0,0,1-5.381-4.322c-.21-.2-.214-.2-.422,0q-.973.935-2.006,1.8A30.109,30.109,0,0,1,26.2,57.3a15.231,15.231,0,0,1-4.385,1.634c-.076.015-.161,0-.221.07h-2.8c-.051-.06-.125-.052-.192-.068a6.573,6.573,0,0,1-1.751-.649,6.914,6.914,0,0,1-3.013-3.465,13.786,13.786,0,0,1-.994-5.033,23.2,23.2,0,0,1,.1-2.915c.093-1.038.235-2.069.417-3.095.168-.949.374-1.889.607-2.824.079-.318.077-.319-.225-.407-.229-.066-.458-.129-.685-.2a34.059,34.059,0,0,1-7.1-2.956,15.853,15.853,0,0,1-3.8-2.92A8.74,8.74,0,0,1,.6,32.183,6.258,6.258,0,0,1,.036,28.85a6.908,6.908,0,0,1,1.3-3.285A12.638,12.638,0,0,1,4.6,22.487a26.15,26.15,0,0,1,5.165-2.666c1.312-.519,2.648-.961,4-1.352.266-.077.263-.081.2-.339-.151-.671-.309-1.341-.45-2.014a32.49,32.49,0,0,1-.672-5.256A19.627,19.627,0,0,1,13,7.36a11.545,11.545,0,0,1,.973-3.449A6.559,6.559,0,0,1,18.691.075c.076-.017.161-.006.219-.075M33.136,40.183c1.261-.008,2.163-.018,3.067-.046,1.012-.033,2.023-.1,3.035-.143a.618.618,0,0,0,.536-.294,84.339,84.339,0,0,0,5.778-9.9.57.57,0,0,0-.006-.573q-1.765-3.564-3.86-6.948-.952-1.533-1.967-3.025a.419.419,0,0,0-.363-.2c-.943-.046-1.882-.126-2.824-.152-1.211-.033-2.422-.053-3.635-.043-1.738.016-3.472.071-5.208.193a.5.5,0,0,0-.436.238c-.411.638-.842,1.263-1.253,1.9a81.919,81.919,0,0,0-4.552,8.049.542.542,0,0,0,0,.551c.351.661.68,1.334,1.028,2A82.64,82.64,0,0,0,27.2,39.667a.668.668,0,0,0,.58.328c.684.031,1.367.091,2.051.111,1.221.037,2.44.1,3.306.077M15.748,10.335a24.4,24.4,0,0,0,.232,2.849,37.349,37.349,0,0,0,.814,4.222c.066.267.082.277.341.22,1.539-.342,3.092-.614,4.653-.842,1.246-.182,2.5-.34,3.75-.442a.488.488,0,0,0,.4-.215A66.966,66.966,0,0,1,31.3,9.516c.161-.174.165-.182-.018-.351-.456-.422-.912-.847-1.381-1.257A30.28,30.28,0,0,0,25.8,4.838a15.342,15.342,0,0,0-3.6-1.679,6.821,6.821,0,0,0-2.347-.324,3.472,3.472,0,0,0-2.371,1.023A5.292,5.292,0,0,0,16.235,6.11a14.12,14.12,0,0,0-.487,4.226M64.09,29.5a3.7,3.7,0,0,0-.358-1.492,6.118,6.118,0,0,0-1.181-1.654,13.078,13.078,0,0,0-2.83-2.145,32.024,32.024,0,0,0-7.31-2.972c-.243-.07-.246-.065-.325.184a66.8,66.8,0,0,1-3.055,7.8.625.625,0,0,0,.006.584,68.084,68.084,0,0,1,2.748,6.876c.105.317.208.636.315.952.072.206.087.211.3.157.04-.01.077-.023.115-.033,1.192-.342,2.37-.73,3.523-1.186A22.592,22.592,0,0,0,61.1,33.913,9.109,9.109,0,0,0,63.347,31.7,4.014,4.014,0,0,0,64.09,29.5M15.748,49.036a14.07,14.07,0,0,0,.3,3.162,6.539,6.539,0,0,0,1.063,2.542,3.412,3.412,0,0,0,2.175,1.383,5.82,5.82,0,0,0,2.59-.162,14.649,14.649,0,0,0,4.042-1.844,33.4,33.4,0,0,0,5.36-4.251c.028-.027.055-.056.084-.083a.121.121,0,0,0,0-.2c-.035-.034-.069-.072-.1-.108Q29.5,47.551,27.884,45.5c-.67-.853-1.326-1.719-1.954-2.6a.417.417,0,0,0-.335-.2c-.494-.041-.986-.105-1.479-.157-1.125-.121-2.244-.277-3.361-.456q-1.851-.3-3.683-.7c-.2-.044-.2-.04-.259.164-.167.637-.31,1.28-.441,1.925a28.976,28.976,0,0,0-.625,5.555M51.25,9.661A15.684,15.684,0,0,0,51.026,7.2a7.791,7.791,0,0,0-.82-2.419,3.546,3.546,0,0,0-2.41-1.86,5.452,5.452,0,0,0-2.3.057A12.574,12.574,0,0,0,42,4.373a31.408,31.408,0,0,0-6.26,4.773c-.2.19-.2.194-.013.4.627.685,1.244,1.378,1.843,2.087q1.835,2.173,3.49,4.483a.458.458,0,0,0,.357.225c.891.066,1.776.179,2.662.29q2.142.27,4.259.681c.508.1,1.011.211,1.516.315.265.054.285.042.351-.211.056-.22.106-.439.157-.659a31.318,31.318,0,0,0,.89-7.093m0,39.7a29.05,29.05,0,0,0-.263-3.71,40.9,40.9,0,0,0-.8-4.077c-.051-.214-.063-.22-.283-.172-1.485.318-2.976.595-4.478.815-1.218.178-2.437.339-3.663.447-.555.048-.554.042-.885.5a68.037,68.037,0,0,1-5.145,6.3c-.23.249-.235.206.026.452A37.081,37.081,0,0,0,39.8,53.266a19.086,19.086,0,0,0,4.171,2.32,7.425,7.425,0,0,0,3.369.589,3.42,3.42,0,0,0,2.105-.934,5.111,5.111,0,0,0,1.288-2.228,12.852,12.852,0,0,0,.522-3.655M14.639,37.806c.227.049.238-.092.271-.2a67.7,67.7,0,0,1,3.065-7.829.563.563,0,0,0,0-.525,67.35,67.35,0,0,1-3.068-7.828c-.082-.256-.085-.255-.352-.178a36.846,36.846,0,0,0-4.951,1.777,19.434,19.434,0,0,0-4.028,2.331,8.338,8.338,0,0,0-2.046,2.163,3.5,3.5,0,0,0-.287,3.461A6.016,6.016,0,0,0,4.478,32.7,14.45,14.45,0,0,0,8.1,35.27a34.068,34.068,0,0,0,6.476,2.517l.068.019M37.325,16.052a.582.582,0,0,0-.158-.3Q35.519,13.62,33.7,11.627c-.2-.216-.2-.218-.4,0-.014.014-.028.029-.041.043-1.222,1.331-2.377,2.718-3.481,4.147-.045.058-.118.107-.091.233,1.264-.071,2.53-.076,3.8-.076s2.539,0,3.842.078M23.634,19.491a1.455,1.455,0,0,0-.56.03c-1.732.218-3.451.518-5.156.887-.26.056-.263.057-.182.305.57,1.748,1.208,3.472,1.929,5.166a.271.271,0,0,0,.135.183c1.178-2.232,2.448-4.415,3.833-6.57M47.193,32.973q-1.781,3.381-3.826,6.56a.206.206,0,0,0,.173.034c.352-.05.705-.1,1.059-.15,1.495-.2,2.975-.474,4.45-.786.287-.061.288-.067.2-.351l-.028-.084c-.543-1.674-1.165-3.32-1.844-4.945a.491.491,0,0,0-.184-.279m-29.529,5.59c1.976.442,3.941.768,6,1.024-1.405-2.2-2.685-4.384-3.893-6.679-.806,1.882-1.5,3.736-2.105,5.655M47.221,26.111c.064-.136.1-.2.13-.275.678-1.613,1.3-3.249,1.838-4.914.172-.529.216-.446-.336-.565-1.694-.366-3.407-.639-5.126-.873a.51.51,0,0,0-.345.031c1.367,2.14,2.639,4.309,3.839,6.6M37.3,43c-1.282,0-2.551.071-3.821.07S30.938,43.007,29.65,43a1.06,1.06,0,0,0,.2.3c1.088,1.4,2.226,2.767,3.429,4.078.22.239.218.242.447,0l.041-.043q1.8-1.97,3.426-4.082A.343.343,0,0,0,37.3,43" transform="translate(6 10)" fill="#c2c7cc"/>
      <path id="Path_41" data-name="Path 41" d="M33.71,36.042a6.031,6.031,0,1,1,6.044-6.017,6.041,6.041,0,0,1-6.044,6.017" transform="translate(5.78 9.498)" fill="#c2c7cc"/>
    </g>
  </g>
</svg>
