<svg xmlns="http://www.w3.org/2000/svg" xmlns:xlink="http://www.w3.org/1999/xlink" width="80" height="80" viewBox="0 0 80 80">
  <defs>
    <clipPath id="clip-Vue.js_Hover">
      <rect width="80" height="80"/>
    </clipPath>
  </defs>
  <g id="Vue.js_Hover" clip-path="url(#clip-Vue.js_Hover)">
    <rect width="80" height="80" fill="#fff"/>
    <rect id="Rectangle_1" data-name="Rectangle 1" width="80" height="80" fill="#e9f0f9"/>
    <g id="Vue.js" transform="translate(6 11)">
      <path id="Path_38" data-name="Path 38" d="M67,.069c-.542.935-1.087,1.869-1.627,2.8q-3.854,6.674-7.7,13.348L49.5,30.378q-3.859,6.686-7.72,13.372-3.959,6.857-7.915,13.716c-.1.179-.208.357-.312.536-.1-.039-.12-.128-.16-.2q-4.54-7.861-9.076-15.723L16.171,27.973,7.393,12.764.182.274C.136.195.111.1,0,.069.015.051-.026.01.031.012c.075,0,.151,0,.226,0H13.47a.978.978,0,0,0,.163.356c.1.171.2.341.3.512l1.411,2.446q.672,1.162,1.343,2.324.8,1.381,1.595,2.764.672,1.162,1.344,2.323.79,1.37,1.578,2.742.9,1.554,1.8,3.1c.606,1.053,1.208,2.108,1.815,3.159.655,1.133,1.315,2.264,1.97,3.4.607,1.052,1.207,2.108,1.815,3.159.729,1.264,1.465,2.524,2.195,3.788.814,1.411,1.621,2.825,2.44,4.234a2.013,2.013,0,0,0,.3.473c.049-.071.091-.123.123-.18q.835-1.442,1.667-2.885c.756-1.314,1.507-2.631,2.264-3.944.814-1.411,1.634-2.819,2.448-4.229.66-1.141,1.315-2.286,1.973-3.427.73-1.264,1.466-2.524,2.2-3.788.814-1.411,1.622-2.825,2.436-4.235.677-1.175,1.36-2.347,2.037-3.521q1.108-1.92,2.212-3.844c.8-1.394,1.616-2.784,2.417-4.181A1.789,1.789,0,0,0,53.59.013q6.592,0,13.184,0c.075,0,.174-.057.226.054" transform="translate(0)" fill="#45ab6f"/>
      <path id="Path_39" data-name="Path 39" d="M56.151.014a1.787,1.787,0,0,1-.282.549c-.8,1.4-1.613,2.787-2.418,4.182-.739,1.28-1.473,2.563-2.212,3.844q-1.017,1.761-2.038,3.52-1.22,2.117-2.436,4.236c-.729,1.264-1.465,2.524-2.195,3.787-.66,1.141-1.315,2.285-1.973,3.427-.815,1.411-1.635,2.818-2.448,4.229-.758,1.313-1.509,2.629-2.264,3.943q-.831,1.444-1.667,2.886c-.033.056-.074.108-.124.18a2.027,2.027,0,0,1-.3-.473c-.818-1.409-1.626-2.824-2.44-4.234-.73-1.264-1.465-2.524-2.2-3.787-.607-1.053-1.208-2.108-1.815-3.16-.655-1.133-1.315-2.263-1.969-3.4-.608-1.052-1.209-2.108-1.816-3.159-.6-1.036-1.2-2.07-1.8-3.1q-.79-1.37-1.578-2.742-.67-1.162-1.344-2.322-.8-1.383-1.595-2.765Q18.577,4.491,17.9,3.33,17.2,2.107,16.493.883c-.1-.171-.2-.341-.3-.512a.978.978,0,0,1-.163-.356H28.368a1.14,1.14,0,0,0,.056.127q3.769,6.534,7.542,13.067c.034.06.049.142.146.165.053-.087.108-.174.16-.263q3.058-5.3,6.115-10.595c.48-.832.952-1.666,1.429-2.5Z" transform="translate(-2.591 -0.002)" fill="#26394c"/>
    </g>
  </g>
</svg>
