<svg xmlns="http://www.w3.org/2000/svg" xmlns:xlink="http://www.w3.org/1999/xlink" width="100" height="100" viewBox="0 0 100 100">
  <defs>
    <clipPath id="clip-Elite_Author_on_Codecanyon_1">
      <rect width="100" height="100"/>
    </clipPath>
  </defs>
  <g id="Elite_Author_on_Codecanyon_1" data-name="Elite Author on Codecanyon – 1" clip-path="url(#clip-Elite_Author_on_Codecanyon_1)">
    <rect id="Rectangle_1" data-name="Rectangle 1" width="100" height="100" rx="8" fill="#176bf1"/>
    <g id="Elite_Author" data-name="Elite Author" transform="translate(10 6)">
      <path id="Path_43" data-name="Path 43" d="M.513,26.944a.23.23,0,0,1,.013-.074,10.67,10.67,0,0,1,4.105-5.428l.352-.223Q20.05,11.314,35.115,1.41a9,9,0,0,1,7.839-.9,7.059,7.059,0,0,1,1.576.772Q60.162,11.494,75.792,21.712a6.587,6.587,0,0,1,.607.494,11.053,11.053,0,0,1,3.564,6.96c.025.253.035.641.035,1.16q0,13.957,0,27.913a10.71,10.71,0,0,1-2.712,6.715,9.782,9.782,0,0,1-2.137,1.81Q60.071,76.62,44.995,86.476c-.445.293-.782.5-1,.611A8.616,8.616,0,0,1,40.1,88a8.321,8.321,0,0,1-4.642-1.2Q19.965,76.66,4.467,66.523A10.616,10.616,0,0,1,0,58.272Q0,43.913.013,29.554A8.82,8.82,0,0,1,.468,27l.02-.02a.045.045,0,0,0,.025-.035M39.941,17.9l-.341.007A26.861,26.861,0,0,0,22.153,24.6,26,26,0,0,0,13.8,39.022c-3.177,16.183,9.387,31.1,26.135,31.146h0V85.415a.027.027,0,0,0,.03.03,5.9,5.9,0,0,0,3.44-1.135q14.874-9.718,29.742-19.446.793-.518.974-.658a8.385,8.385,0,0,0,2.81-4.216,5.1,5.1,0,0,0,.255-1.475V29.986a6.22,6.22,0,0,0-.2-1.7A8.232,8.232,0,0,0,73.9,23.709q-.808-.54-1.624-1.073Q57.6,13.048,42.936,3.451a5.388,5.388,0,0,0-2.965-.819.027.027,0,0,0-.03.03Z" transform="translate(0 0.001)" fill="#fff"/>
      <path id="Path_44" data-name="Path 44" d="M15.79,68.591q1.614-.015,2.836-.142a26.642,26.642,0,0,0,21.935-16.37,25.774,25.774,0,0,0-2.553-24.036A26.845,26.845,0,0,0,23.881,17.55c-.246-.079-.58-.146-.864-.248a1.71,1.71,0,0,0-.519-.137,1.79,1.79,0,0,0-.575-.142,2.921,2.921,0,0,1-.448-.092,2.24,2.24,0,0,0-.782-.146,28.631,28.631,0,0,0-4.9-.457V1.088c0-.02.01-.03.03-.027a5.4,5.4,0,0,1,2.965.817q14.689,9.594,29.377,19.186.817.533,1.628,1.073a8.221,8.221,0,0,1,3.089,4.579,6.115,6.115,0,0,1,.2,1.7V56.94a5.2,5.2,0,0,1-.256,1.475,8.438,8.438,0,0,1-2.813,4.216c-.122.092-.448.31-.975.656Q34.153,73.015,19.262,82.734a5.927,5.927,0,0,1-3.444,1.135c-.02,0-.028-.01-.028-.03Z" transform="translate(24.107 1.575)" fill="#fff"/>
      <path id="Path_47" data-name="Path 47" d="M30.694,8a3.252,3.252,0,0,0,.008.422V22.9a.209.209,0,0,0,.01.052l.02.05-.089,0H20.073a.043.043,0,0,0-.046.042v3.863l.008,0H30.494l.195.015,0,2.605H17.4a.027.027,0,0,0-.03.03v3.851a.027.027,0,0,0,.03.03H30.707l0,2.62-.876,0H14.072a.027.027,0,0,0-.03.03v3.848a.027.027,0,0,0,.03.03H30.7l.025,0c-.02.434,0,.876-.038,1.307-.013.166.018.4.018.511V56.23a.048.048,0,0,0,.015.035l.015.02h-.076c-.932-.02-1.519-.037-1.757-.057a24.7,24.7,0,0,1-13.95-5.53A23.8,23.8,0,0,1,9,20.689,24.743,24.743,0,0,1,28.777,8.083c.572-.045,1.213-.069,1.917-.079" transform="translate(9.259 11.893)" fill="#fff"/>
      <path id="Path_48" data-name="Path 48" d="M15.795,8a27.35,27.35,0,0,1,3.955.313,13.955,13.955,0,0,1,1.41.278c.086.022.172,0,.248.025.147.047.405.117.775.211A24.658,24.658,0,0,1,37.327,20.411,23.7,23.7,0,0,1,38.3,41.966,24.742,24.742,0,0,1,17.788,56.222q-.976.078-1.955.062l-.015-.02a.048.048,0,0,1-.015-.035V41.8c0-.109-.03-.345-.018-.511.035-.432.018-.873.038-1.307H32.417a.027.027,0,0,0,.03-.03V36.1c0-.017-.01-.027-.03-.027l-16.612,0,0-2.62H29.092c.018,0,.028-.01.028-.03V29.566c0-.02-.008-.03-.028-.03H15.805c.02,0,.015,0-.013,0l0-2.605,10.615-.007a.054.054,0,0,0,.056-.052V23.061A.06.06,0,0,0,26.4,23H15.833l-.02-.05a.209.209,0,0,1-.01-.052V8.426A3.252,3.252,0,0,1,15.795,8" transform="translate(24.119 11.893)" fill="#fff"/>
    </g>
  </g>
</svg>
