<svg xmlns="http://www.w3.org/2000/svg" xmlns:xlink="http://www.w3.org/1999/xlink" width="50" height="50" viewBox="0 0 50 50">
  <defs>
    <clipPath id="clip-Elite_Author_on_Codecanyon-_50x50">
      <rect width="50" height="50"/>
    </clipPath>
  </defs>
  <g id="Elite_Author_on_Codecanyon-_50x50" data-name="Elite Author on Codecanyon- 50x50" clip-path="url(#clip-Elite_Author_on_Codecanyon-_50x50)">
    <g id="Elite_Author" data-name="Elite Author" transform="translate(2.273 -0.001)">
      <rect id="Rectangle_8" data-name="Rectangle 8" width="50" height="50" transform="translate(-2.273 0.001)" fill="none"/>
      <path id="Path_43" data-name="Path 43" d="M.292,15.309A.131.131,0,0,1,.3,15.267a6.062,6.062,0,0,1,2.333-3.084l.2-.127L19.951.8A5.114,5.114,0,0,1,24.405.289a4.011,4.011,0,0,1,.9.439q8.882,5.8,17.763,11.609a3.742,3.742,0,0,1,.345.281,6.28,6.28,0,0,1,2.025,3.955c.014.144.02.364.02.659q0,7.93,0,15.86a6.085,6.085,0,0,1-1.541,3.815A5.558,5.558,0,0,1,42.7,37.935l-17.133,11.2c-.253.166-.444.282-.569.347a4.9,4.9,0,0,1-2.21.519,4.728,4.728,0,0,1-2.637-.683q-8.8-5.761-17.61-11.52A6.032,6.032,0,0,1,0,33.109q0-8.158.007-16.317A5.012,5.012,0,0,1,.266,15.34l.011-.011a.026.026,0,0,0,.014-.02m22.4-5.137-.194,0a15.262,15.262,0,0,0-9.912,3.8,14.77,14.77,0,0,0-4.744,8.2,14.944,14.944,0,0,0,14.849,17.7h0v8.663a.015.015,0,0,0,.017.017,3.351,3.351,0,0,0,1.955-.645q8.451-5.522,16.9-11.049.451-.294.553-.374a4.764,4.764,0,0,0,1.6-2.4,2.9,2.9,0,0,0,.145-.838V17.038a3.534,3.534,0,0,0-.114-.964,4.677,4.677,0,0,0-1.755-2.6q-.459-.307-.923-.61Q32.73,7.414,24.4,1.961A3.061,3.061,0,0,0,22.711,1.5a.015.015,0,0,0-.017.017Z" transform="translate(0 0.001)" fill="#f07131"/>
      <path id="Path_44" data-name="Path 44" d="M15.79,39.43q.917-.008,1.611-.08a15.138,15.138,0,0,0,12.463-9.3,14.644,14.644,0,0,0-1.45-13.657,15.253,15.253,0,0,0-8.027-5.962c-.14-.045-.329-.083-.491-.141a.971.971,0,0,0-.295-.078,1.017,1.017,0,0,0-.327-.08,1.66,1.66,0,0,1-.255-.052,1.273,1.273,0,0,0-.445-.083,16.268,16.268,0,0,0-2.786-.26V1.076c0-.011.006-.017.017-.016a3.07,3.07,0,0,1,1.685.464l16.692,10.9q.464.3.925.609a4.671,4.671,0,0,1,1.755,2.6,3.474,3.474,0,0,1,.115.964V32.81a2.954,2.954,0,0,1-.145.838,4.794,4.794,0,0,1-1.6,2.4c-.069.052-.255.176-.554.372q-8.458,5.528-16.919,11.049a3.367,3.367,0,0,1-1.957.645c-.012,0-.016-.006-.016-.017Z" transform="translate(6.879 0.438)" fill="#d9662c"/>
      <path id="Path_45" data-name="Path 45" d="M15.849,7.21a16.153,16.153,0,0,1,2.787.258,1.521,1.521,0,0,0,.443.083,1.849,1.849,0,0,0,.255.054,1.024,1.024,0,0,1,.328.079.988.988,0,0,0,.294.078c.163.058.351.1.492.142a15.263,15.263,0,0,1,8.027,5.958,14.626,14.626,0,0,1,1.449,13.647A15.131,15.131,0,0,1,17.461,36.8c-.462.049-1,.076-1.611.082h0V35.82a.044.044,0,0,0-.01-.03l-.016-.024h.042c.371.007.742-.006,1.111-.035a14.056,14.056,0,0,0,11.659-8.1,13.475,13.475,0,0,0-.555-12.249,14.01,14.01,0,0,0-8.6-6.581c-.21-.054-.357-.093-.44-.12-.043-.014-.092,0-.141-.014a7.927,7.927,0,0,0-.8-.158,15.947,15.947,0,0,0-2.247-.178V7.238a.018.018,0,0,0-.02-.02l-.171,0Z" transform="translate(6.832 2.974)" fill="#e6e6e6"/>
      <path id="Path_46" data-name="Path 46" d="M20.216,7.212l.17,0c.014,0,.02.007.02.021v1.09q-.6.008-1.089.045A14.059,14.059,0,0,0,8.081,15.537a13.523,13.523,0,0,0,3.377,17.051,14.039,14.039,0,0,0,7.926,3.143q.205.017,1,.034l.017.024a.051.051,0,0,1,.009.03v1.066A14.943,14.943,0,0,1,5.543,19.2a14.751,14.751,0,0,1,4.748-8.191,15.3,15.3,0,0,1,9.925-3.8" transform="translate(2.296 2.975)" fill="#fff"/>
      <path id="Path_47" data-name="Path 47" d="M20.056,8a1.848,1.848,0,0,0,0,.24v8.225a.119.119,0,0,0,.006.03l.012.028H14.022a.024.024,0,0,0-.026.024v2.195l0,0h5.942l.111.008v1.48H12.5a.015.015,0,0,0-.017.017v2.188a.015.015,0,0,0,.017.017h7.561v1.489h-9.45a.015.015,0,0,0-.017.017v2.186a.015.015,0,0,0,.017.017h9.46c-.012.247,0,.5-.022.743-.007.094.01.228.01.29v8.2a.028.028,0,0,0,.009.02l.009.011h-.043c-.529-.011-.863-.021-1-.032a14.036,14.036,0,0,1-7.926-3.142,13.521,13.521,0,0,1-3.377-17.05A14.058,14.058,0,0,1,18.967,8.049c.325-.025.689-.039,1.089-.045" transform="translate(2.645 3.302)" fill="#f07131"/>
      <path id="Path_48" data-name="Path 48" d="M15.789,8a15.54,15.54,0,0,1,2.247.178,7.929,7.929,0,0,1,.8.158c.049.013.1,0,.141.014.083.027.23.066.44.12a14.01,14.01,0,0,1,8.6,6.58A13.467,13.467,0,0,1,28.579,27.3a14.058,14.058,0,0,1-11.657,8.1q-.555.044-1.111.035l-.009-.011a.028.028,0,0,1-.009-.02V27.2c0-.062-.017-.2-.01-.29.02-.245.01-.5.022-.743h9.429a.015.015,0,0,0,.017-.017V23.966c0-.01-.006-.016-.017-.016H15.8V22.46h7.548c.01,0,.016-.006.016-.017V20.255c0-.011,0-.017-.016-.017H15.8c.012,0,.009,0-.007,0v-1.48l6.031,0a.03.03,0,0,0,.032-.03V16.559a.034.034,0,0,0-.033-.032H15.811L15.8,16.5a.119.119,0,0,1-.006-.03V8.244a1.848,1.848,0,0,1,0-.24" transform="translate(6.889 3.302)" fill="#d9662c"/>
      <path id="Path_49" data-name="Path 49" d="M17.605,14.05c0,.006.009.008.019.008a.015.015,0,0,1,.014.017v2.184c0,.011,0,.016-.016.016H11.578l0,0v-2.2a.024.024,0,0,1,.024-.024Z" transform="translate(5.058 5.773)" fill="#fff"/>
      <path id="Path_50" data-name="Path 50" d="M15.792,14.05h6.056a.032.032,0,0,1,.033.032v2.169a.031.031,0,0,1-.03.03l-6.031,0-.112-.01h.1c.012,0,.016,0,.016-.016V14.075a.015.015,0,0,0-.014-.017c-.01,0-.017,0-.019-.008" transform="translate(6.863 5.773)" fill="#e6e6e6"/>
      <path id="Path_51" data-name="Path 51" d="M18.094,16.683c.016,0,.019,0,.007,0l0,2.212,0,.006,0,.008H10.541a.015.015,0,0,1-.017-.017V16.7a.015.015,0,0,1,.017-.017Z" transform="translate(4.598 6.855)" fill="#fff"/>
      <path id="Path_52" data-name="Path 52" d="M15.793,16.683h7.549a.015.015,0,0,1,.017.017v2.192a.015.015,0,0,1-.017.017h-7.56l0-.008,0-.006Z" transform="translate(6.896 6.855)" fill="#e6e6e6"/>
      <path id="Path_53" data-name="Path 53" d="M15.943,19.315h9.439a.015.015,0,0,1,.017.017v2.193a.015.015,0,0,1-.017.017H15.939V19.376a.048.048,0,0,0-.055-.054l-.44-.006Z" transform="translate(6.746 7.936)" fill="#e6e6e6"/>
      <path id="Path_54" data-name="Path 54" d="M18.181,19.316l.439.006a.048.048,0,0,1,.055.054v2.165H9.228a.015.015,0,0,1-.017-.017V19.333a.015.015,0,0,1,.017-.017Z" transform="translate(4.023 7.936)" fill="#fff"/>
    </g>
  </g>
</svg>
