<svg xmlns="http://www.w3.org/2000/svg" xmlns:xlink="http://www.w3.org/1999/xlink" width="50" height="50" viewBox="0 0 50 50">
  <defs>
    <clipPath id="clip-Ongoing_Support-_50x50">
      <rect width="50" height="50"/>
    </clipPath>
  </defs>
  <g id="Ongoing_Support-_50x50" data-name="Ongoing Support- 50x50" clip-path="url(#clip-Ongoing_Support-_50x50)">
    <g id="Ongoing_Support" data-name="Ongoing Support" transform="translate(4 0.1)">
      <rect id="Rectangle_1" data-name="Rectangle 1" width="50" height="50" transform="translate(-4 -0.1)" fill="none"/>
      <path id="Path_65" data-name="Path 65" d="M18.8,0h.908c5.971.242,11.414,4.3,12.259,10.5a.115.115,0,0,0,.047.079,2.25,2.25,0,0,1,.921,2.119q0,2.06,0,4.12a3.269,3.269,0,0,1-.127,1.042c-.607,1.731-2.392,1.408-3.8,1.411a.084.084,0,0,0-.077.045,8.42,8.42,0,0,1-6.876,4.288.1.1,0,0,1-.085-.032c-.551-.6-1.194-.475-1.923-.477a2.482,2.482,0,0,0-.734.079,1.332,1.332,0,0,0-.027,2.514,2.032,2.032,0,0,0,.7.09c.773,0,1.51.144,2.048-.559a.109.109,0,0,1,.08-.044A10.371,10.371,0,0,0,27.733,23.1a.021.021,0,0,1,.028,0,.022.022,0,0,1,0,.023c-1.612,3.812-4.465,5.95-8.65,5.858-5.361-.117-8.556-4.856-9.547-9.658a.059.059,0,0,0-.061-.051c-1.567-.031-3.226.325-3.83-1.46a2.986,2.986,0,0,1-.119-.949q.008-2.133,0-4.265a2.224,2.224,0,0,1,.921-2.025.122.122,0,0,0,.049-.083C7.442,4.271,12.749.259,18.8,0m-2.66,4.844c4.994-1.228,10.938.413,12.693,5.854.011.034.032.042.063.023l.6-.365a.065.065,0,0,0,.028-.069A10.079,10.079,0,0,0,20.31,2.47C15.252,2.012,10,4.979,8.978,10.293a.06.06,0,0,0,.031.069l.567.338a.043.043,0,0,0,.071-.025,8.789,8.789,0,0,1,6.5-5.83" transform="translate(2.213 0)" fill="#176bf1"/>
      <path id="Path_66" data-name="Path 66" d="M42.914,41.378H0a90.289,90.289,0,0,1,1.011-9.187c.265-1.4.869-3.57,1.958-4.485a3.375,3.375,0,0,1,.915-.5q4.744-1.907,9.484-3.813a1.889,1.889,0,0,0,.522-.317q.94-.8,1.884-1.6a1.641,1.641,0,0,1,1.942-.432,3.892,3.892,0,0,1,.822.683q1.449,1.438,2.879,2.876a.061.061,0,0,0,.087,0q1.487-1.477,2.969-2.961a2.9,2.9,0,0,1,.845-.648,1.656,1.656,0,0,1,1.821.473q.961.817,1.933,1.625a2.04,2.04,0,0,0,.546.324q4.769,1.907,9.533,3.829a2.475,2.475,0,0,1,1.172.849,10.08,10.08,0,0,1,1.549,3.96,66.91,66.91,0,0,1,1.044,9.325" transform="translate(0 8.522)" fill="#176bf1"/>
    </g>
  </g>
</svg>
