<svg xmlns="http://www.w3.org/2000/svg" xmlns:xlink="http://www.w3.org/1999/xlink" width="50" height="50" viewBox="0 0 50 50">
  <defs>
    <clipPath id="clip-Timely_Updates-_50x50_">
      <rect width="50" height="50"/>
    </clipPath>
  </defs>
  <g id="Timely_Updates-_50x50_" data-name="Timely Updates- 50x50 " clip-path="url(#clip-Timely_Updates-_50x50_)">
    <g id="Timely_Updates" data-name="Timely Updates" transform="translate(2 0)">
      <rect id="Rectangle_7" data-name="Rectangle 7" width="50" height="50" transform="translate(-2 0)" fill="none"/>
      <path id="Path_55" data-name="Path 55" d="M13.754,33.337c-.44.426-.668.624-1.164.139q-2.056-2.009-4.107-4.026c-.368-.362-.458-.68-.083-1.068q1.2-1.247,2.478-2.561a.089.089,0,0,0,.014-.116,6.926,6.926,0,0,1-.706-1.734.061.061,0,0,0-.065-.049H6.4c-.429,0-.673-.192-.673-.624q0-3.033,0-6.07c0-.433.2-.672.628-.672q1.935,0,3.845,0a.067.067,0,0,0,.065-.049,7.058,7.058,0,0,1,.7-1.726.114.114,0,0,0-.02-.137q-1.3-1.264-2.5-2.5c-.359-.369-.4-.689-.027-1.051Q10.593,9,12.77,6.908a.626.626,0,0,1,.974-.024q1.313,1.285,2.664,2.654a.08.08,0,0,0,.1.017,13.606,13.606,0,0,1,1.751-.691.055.055,0,0,0,.038-.052q0-1.782,0-3.555c0-.522.158-.778.693-.778q2.923,0,5.845,0c.462,0,.748.146.748.633q0,1.845,0,3.679a.061.061,0,0,0,.035.055l1.7.73a.059.059,0,0,0,.065-.013q1.349-1.347,2.69-2.689a.582.582,0,0,1,.95.024q2.019,2.087,4.029,4.184c.352.366.508.715.11,1.111q-1.294,1.283-2.582,2.571a.055.055,0,0,0-.01.066A7.533,7.533,0,0,1,33.3,16.6a.05.05,0,0,0,.047.037q1.877.006,3.741,0c.236,0,.454.04.479.3.02.191-.144.288-.144.469q0,2.914,0,5.831c0,.471-.136.771-.638.769q-1.839,0-3.678,0a.054.054,0,0,0-.057.042,7.337,7.337,0,0,1-.723,1.762.068.068,0,0,0,.011.081q1.292,1.285,2.565,2.569a.627.627,0,0,1,0,1q-2.113,2.072-4.224,4.143a.588.588,0,0,1-.908.034Q28.45,32.322,27.131,31a.047.047,0,0,0-.065-.007,5.684,5.684,0,0,1-1.677.715.057.057,0,0,0-.042.055q-.008,1.724,0,3.435c0,.515-.132.8-.675.8q-2.944,0-5.889,0c-.457,0-.724-.163-.724-.636q0-1.847,0-3.674a.064.064,0,0,0-.047-.062,7.139,7.139,0,0,1-1.745-.714.1.1,0,0,0-.12.018q-1.171,1.228-2.389,2.407m8.57-21.428a.543.543,0,0,0-.542-.544H21.7a.544.544,0,0,0-.546.542v.567a.544.544,0,0,0,.542.546h.079a.544.544,0,0,0,.546-.542Zm4.189,1.475a.577.577,0,0,0-.165-.8l-.061-.04a.579.579,0,0,0-.8.165l-.311.474a.577.577,0,0,0,.165.8l.062.041a.577.577,0,0,0,.8-.165Zm-8.576-.745a.617.617,0,0,0-.945.656,2.025,2.025,0,0,0,.546.847.6.6,0,0,0,.864-.559,1.344,1.344,0,0,0-.465-.945m-2.888,3.2c-.385-.218-.687-.482-1.076-.1-.516.509-.006.879.409,1.138.392.246.683.239.964-.148.341-.465.085-.674-.3-.891m12.895.711c.246.783.837.5,1.345.16a.6.6,0,0,0,.146-.969c-.366-.431-.824-.054-1.2.167-.3.175-.395.3-.287.642m-6.839,2.458a1.471,1.471,0,1,0,1.957,1.941.069.069,0,0,1,.064-.038q2.019,0,4.039,0a1.18,1.18,0,0,0,.474-.068.6.6,0,0,0,.086-.984.886.886,0,0,0-.5-.113h-4.1a.068.068,0,0,1-.061-.037,1.712,1.712,0,0,0-.693-.7.072.072,0,0,1-.037-.062q0-1.016,0-2.03a1.591,1.591,0,0,0-.055-.506.584.584,0,0,0-1.121.266q-.008,1.135-.013,2.269a.067.067,0,0,1-.038.062M14.43,20.291a.541.541,0,0,0-.539-.543h-.57a.541.541,0,0,0-.543.539v.078a.542.542,0,0,0,.539.543h.57a.541.541,0,0,0,.543-.539Zm16.286-.007a.539.539,0,0,0-.542-.536l-.587,0a.539.539,0,0,0-.536.542v.081a.54.54,0,0,0,.542.536l.588,0a.54.54,0,0,0,.536-.542Zm-15.3,3.681a.581.581,0,0,0-.8-.2l-.486.29a.583.583,0,0,0-.2.8l.035.061a.581.581,0,0,0,.8.2l.486-.29a.581.581,0,0,0,.2-.8Zm12.872.823c.286.2.707.492.94.38q.681-.322.354-.928a1.449,1.449,0,0,0-.908-.534.6.6,0,0,0-.386,1.082M16.908,27.723a.606.606,0,0,0,1.138.235,4.035,4.035,0,0,0,.272-.46.616.616,0,0,0-1.039-.648,1.484,1.484,0,0,0-.371.872m8.711.482a.588.588,0,0,0,.8-.156c.3-.37.13-.629-.074-.978a1.235,1.235,0,0,0-.246-.328.639.639,0,0,0-1,.43,2.157,2.157,0,0,0,.423.942.239.239,0,0,0,.1.09m-3.294-.027a.544.544,0,0,0-.544-.544H21.7a.544.544,0,0,0-.544.544v.556a.545.545,0,0,0,.544.544h.082a.545.545,0,0,0,.544-.544Z" transform="translate(2.373 1.853)" fill="#176bf1"/>
      <path id="Path_56" data-name="Path 56" d="M41.511,30.323C46.274,18.208,37.789,4.487,24.662,3.768A19.892,19.892,0,0,0,6.7,12.761a19.578,19.578,0,0,0,2.247,23.8A7.357,7.357,0,0,1,10.424,38.3a1.821,1.821,0,0,1-2.342,2.373,2.585,2.585,0,0,1-.843-.58,23.294,23.294,0,1,1,10.9,5.807.045.045,0,0,0-.055.035.06.06,0,0,0,0,.031c.57,1.142,1.557,2.545.226,3.657a1.816,1.816,0,0,1-2.379-.131,4.077,4.077,0,0,1-.559-.93q-1.12-2.3-2.226-4.6a1.847,1.847,0,0,1,.974-2.787q2.336-1.137,4.677-2.26a3.161,3.161,0,0,1,1.078-.356,1.786,1.786,0,0,1,1.789,2.227c-.256,1.059-1.1,1.154-1.894,1.647-.044.027-.041.045.01.054A19.631,19.631,0,0,0,41.511,30.323" transform="translate(0 0)" fill="#176bf1"/>
    </g>
  </g>
</svg>
